<?xml version="1.0" encoding="UTF-8" standalone="no"?><!-- Generator: Gravit.io --><svg xmlns="http://www.w3.org/2000/svg" xmlns:xlink="http://www.w3.org/1999/xlink" style="isolation:isolate" viewBox="0 0 1080 1080" width="1080pt" height="1080pt"><defs><clipPath id="_clipPath_rnavXy55XtZ81vL0buAvl4rCj8tdxIox"><rect width="1080" height="1080"/></clipPath></defs><g clip-path="url(#_clipPath_rnavXy55XtZ81vL0buAvl4rCj8tdxIox)"><rect width="1080" height="1080" style="fill:rgb(71,15,89)" fill-opacity="0"/><rect x="0" y="0" width="1080" height="1080" transform="matrix(1,0,0,1,0,0)" fill="rgb(38,35,47)"/><g><line x1="188" y1="810" x2="892" y2="810" vector-effect="non-scaling-stroke" stroke-width="10" stroke="rgb(255,255,255)" stroke-linejoin="round" stroke-linecap="round" stroke-miterlimit="3"/><circle vector-effect="non-scaling-stroke" cx="540" cy="270" r="40" fill="rgb(255,255,255)"/></g><g><line x1="188" y1="810" x2="892" y2="810" vector-effect="non-scaling-stroke" stroke-width="10" stroke="rgb(255,255,255)" stroke-linejoin="round" stroke-linecap="round" stroke-miterlimit="3"/><circle vector-effect="non-scaling-stroke" cx="540" cy="310" r="40" fill="rgb(255,255,255)"/></g><g><line x1="188" y1="810" x2="892" y2="810" vector-effect="non-scaling-stroke" stroke-width="10" stroke="rgb(255,255,255)" stroke-linejoin="round" stroke-linecap="round" stroke-miterlimit="3"/><circle vector-effect="non-scaling-stroke" cx="540" cy="350" r="40" fill="rgb(255,255,255)"/></g><g><line x1="188" y1="810" x2="892" y2="810" vector-effect="non-scaling-stroke" stroke-width="10" stroke="rgb(255,255,255)" stroke-linejoin="round" stroke-linecap="round" stroke-miterlimit="3"/><circle vector-effect="non-scaling-stroke" cx="540" cy="390" r="40" fill="rgb(255,255,255)"/></g><g><line x1="188" y1="810" x2="892" y2="810" vector-effect="non-scaling-stroke" stroke-width="10" stroke="rgb(255,255,255)" stroke-linejoin="round" stroke-linecap="round" stroke-miterlimit="3"/><circle vector-effect="non-scaling-stroke" cx="540" cy="430" r="40" fill="rgb(255,255,255)"/></g><g><line x1="188" y1="810" x2="892" y2="810" vector-effect="non-scaling-stroke" stroke-width="10" stroke="rgb(255,255,255)" stroke-linejoin="round" stroke-linecap="round" stroke-miterlimit="3"/><circle vector-effect="non-scaling-stroke" cx="540" cy="470" r="40" fill="rgb(255,255,255)"/></g><g><line x1="188" y1="810" x2="892" y2="810" vector-effect="non-scaling-stroke" stroke-width="10" stroke="rgb(255,255,255)" stroke-linejoin="round" stroke-linecap="round" stroke-miterlimit="3"/><circle vector-effect="non-scaling-stroke" cx="540" cy="510" r="40" fill="rgb(255,255,255)"/></g><g><line x1="188" y1="810" x2="892" y2="810" vector-effect="non-scaling-stroke" stroke-width="10" stroke="rgb(255,255,255)" stroke-linejoin="round" stroke-linecap="round" stroke-miterlimit="3"/><circle vector-effect="non-scaling-stroke" cx="540" cy="550" r="40" fill="rgb(255,255,255)"/></g><g><line x1="188" y1="810" x2="892" y2="810" vector-effect="non-scaling-stroke" stroke-width="10" stroke="rgb(255,255,255)" stroke-linejoin="round" stroke-linecap="round" stroke-miterlimit="3"/><circle vector-effect="non-scaling-stroke" cx="540" cy="590" r="40" fill="rgb(255,255,255)"/></g><g><line x1="188" y1="810" x2="892" y2="810" vector-effect="non-scaling-stroke" stroke-width="10" stroke="rgb(255,255,255)" stroke-linejoin="round" stroke-linecap="round" stroke-miterlimit="3"/><circle vector-effect="non-scaling-stroke" cx="540" cy="630" r="40" fill="rgb(255,255,255)"/></g><g><line x1="188" y1="810" x2="892" y2="810" vector-effect="non-scaling-stroke" stroke-width="10" stroke="rgb(255,255,255)" stroke-linejoin="round" stroke-linecap="round" stroke-miterlimit="3"/><circle vector-effect="non-scaling-stroke" cx="540" cy="670" r="40" fill="rgb(255,255,255)"/></g><g><line x1="188" y1="810" x2="892" y2="810" vector-effect="non-scaling-stroke" stroke-width="10" stroke="rgb(255,255,255)" stroke-linejoin="round" stroke-linecap="round" stroke-miterlimit="3"/><circle vector-effect="non-scaling-stroke" cx="540" cy="710" r="40" fill="rgb(255,255,255)"/></g><g><line x1="188" y1="810" x2="892" y2="810" vector-effect="non-scaling-stroke" stroke-width="10" stroke="rgb(255,255,255)" stroke-linejoin="round" stroke-linecap="round" stroke-miterlimit="3"/><circle vector-effect="non-scaling-stroke" cx="540" cy="750" r="40" fill="rgb(255,255,255)"/></g><g><path d=" M 188 810 Q 416.028 831 540 831 Q 663.972 831 892 810" fill="none" vector-effect="non-scaling-stroke" stroke-width="10" stroke="rgb(255,255,255)" stroke-linejoin="round" stroke-linecap="round" stroke-miterlimit="3"/><circle vector-effect="non-scaling-stroke" cx="540" cy="790" r="40" fill="rgb(255,255,255)"/></g><g><path d=" M 188 810 Q 413.86 871 540 871 Q 666.14 871 892 810" fill="none" vector-effect="non-scaling-stroke" stroke-width="10" stroke="rgb(255,255,255)" stroke-linejoin="round" stroke-linecap="round" stroke-miterlimit="3"/><circle vector-effect="non-scaling-stroke" cx="540" cy="830" r="40" fill="rgb(255,255,255)"/></g><g><path d=" M 188 810 Q 409.641 911 540 911 Q 670.359 911 892 810" fill="none" vector-effect="non-scaling-stroke" stroke-width="10" stroke="rgb(255,255,255)" stroke-linejoin="round" stroke-linecap="round" stroke-miterlimit="3"/><circle vector-effect="non-scaling-stroke" cx="540" cy="870" r="40" fill="rgb(255,255,255)"/></g><g><path d=" M 188 810 Q 413.86 871 540 871 Q 666.14 871 892 810" fill="none" vector-effect="non-scaling-stroke" stroke-width="10" stroke="rgb(255,255,255)" stroke-linejoin="round" stroke-linecap="round" stroke-miterlimit="3"/><circle vector-effect="non-scaling-stroke" cx="540" cy="830" r="40" fill="rgb(255,255,255)"/></g><g><path d=" M 188 810 Q 416.028 831 540 831 Q 663.972 831 892 810" fill="none" vector-effect="non-scaling-stroke" stroke-width="10" stroke="rgb(255,255,255)" stroke-linejoin="round" stroke-linecap="round" stroke-miterlimit="3"/><circle vector-effect="non-scaling-stroke" cx="540" cy="790" r="40" fill="rgb(255,255,255)"/></g><g><line x1="188" y1="810" x2="892" y2="810" vector-effect="non-scaling-stroke" stroke-width="10" stroke="rgb(255,255,255)" stroke-linejoin="round" stroke-linecap="round" stroke-miterlimit="3"/><circle vector-effect="non-scaling-stroke" cx="540" cy="750" r="40" fill="rgb(255,255,255)"/></g><g><line x1="188" y1="810" x2="892" y2="810" vector-effect="non-scaling-stroke" stroke-width="10" stroke="rgb(255,255,255)" stroke-linejoin="round" stroke-linecap="round" stroke-miterlimit="3"/><circle vector-effect="non-scaling-stroke" cx="540" cy="710" r="40" fill="rgb(255,255,255)"/></g><g><line x1="188" y1="810" x2="892" y2="810" vector-effect="non-scaling-stroke" stroke-width="10" stroke="rgb(255,255,255)" stroke-linejoin="round" stroke-linecap="round" stroke-miterlimit="3"/><circle vector-effect="non-scaling-stroke" cx="540" cy="670" r="40" fill="rgb(255,255,255)"/></g><g><line x1="188" y1="810" x2="892" y2="810" vector-effect="non-scaling-stroke" stroke-width="10" stroke="rgb(255,255,255)" stroke-linejoin="round" stroke-linecap="round" stroke-miterlimit="3"/><circle vector-effect="non-scaling-stroke" cx="540" cy="630" r="40" fill="rgb(255,255,255)"/></g><g><line x1="188" y1="810" x2="892" y2="810" vector-effect="non-scaling-stroke" stroke-width="10" stroke="rgb(255,255,255)" stroke-linejoin="round" stroke-linecap="round" stroke-miterlimit="3"/><circle vector-effect="non-scaling-stroke" cx="540" cy="590" r="40" fill="rgb(255,255,255)"/></g><g><line x1="188" y1="810" x2="892" y2="810" vector-effect="non-scaling-stroke" stroke-width="10" stroke="rgb(255,255,255)" stroke-linejoin="round" stroke-linecap="round" stroke-miterlimit="3"/><circle vector-effect="non-scaling-stroke" cx="540" cy="550" r="40" fill="rgb(255,255,255)"/></g><g><line x1="188" y1="810" x2="892" y2="810" vector-effect="non-scaling-stroke" stroke-width="10" stroke="rgb(255,255,255)" stroke-linejoin="round" stroke-linecap="round" stroke-miterlimit="3"/><circle vector-effect="non-scaling-stroke" cx="540" cy="510" r="40" fill="rgb(255,255,255)"/></g><g><line x1="188" y1="810" x2="892" y2="810" vector-effect="non-scaling-stroke" stroke-width="10" stroke="rgb(255,255,255)" stroke-linejoin="round" stroke-linecap="round" stroke-miterlimit="3"/><circle vector-effect="non-scaling-stroke" cx="540" cy="470" r="40" fill="rgb(255,255,255)"/></g><g><line x1="188" y1="810" x2="892" y2="810" vector-effect="non-scaling-stroke" stroke-width="10" stroke="rgb(255,255,255)" stroke-linejoin="round" stroke-linecap="round" stroke-miterlimit="3"/><circle vector-effect="non-scaling-stroke" cx="540" cy="430" r="40" fill="rgb(255,255,255)"/></g><g><line x1="188" y1="810" x2="892" y2="810" vector-effect="non-scaling-stroke" stroke-width="10" stroke="rgb(255,255,255)" stroke-linejoin="round" stroke-linecap="round" stroke-miterlimit="3"/><circle vector-effect="non-scaling-stroke" cx="540" cy="390" r="40" fill="rgb(255,255,255)"/></g><g><line x1="188" y1="810" x2="892" y2="810" vector-effect="non-scaling-stroke" stroke-width="10" stroke="rgb(255,255,255)" stroke-linejoin="round" stroke-linecap="round" stroke-miterlimit="3"/><circle vector-effect="non-scaling-stroke" cx="540" cy="350" r="40" fill="rgb(255,255,255)"/></g><g><line x1="188" y1="810" x2="892" y2="810" vector-effect="non-scaling-stroke" stroke-width="10" stroke="rgb(255,255,255)" stroke-linejoin="round" stroke-linecap="round" stroke-miterlimit="3"/><circle vector-effect="non-scaling-stroke" cx="540" cy="310" r="40" fill="rgb(255,255,255)"/></g></g></svg>