<?xml version="1.0" encoding="UTF-8" standalone="no"?><!-- Generator: Gravit.io --><svg xmlns="http://www.w3.org/2000/svg" xmlns:xlink="http://www.w3.org/1999/xlink" style="isolation:isolate" viewBox="0 0 512 512" width="512pt" height="512pt"><defs><clipPath id="_clipPath_vwSGKCkykggbqvsbH8laRXnEAXcvNI0w"><rect width="512" height="512"/></clipPath></defs><g clip-path="url(#_clipPath_vwSGKCkykggbqvsbH8laRXnEAXcvNI0w)"><rect x="0" y="0" width="512" height="512" transform="matrix(1,0,0,1,0,0)" fill="rgb(255,118,118)"/><path d=" M 256 127.2 L 256 127.2 C 236.96 86.858 196.64 60 149.6 60 L 149.6 60 C 107.856 60 71.2 81.737 50.33 114.513 C 38.724 132.741 32 154.384 32 177.6 C 32 210.561 44.934 239.232 66.572 260.379 L 256 452 L 256 452 L 445.428 260.379 C 467.066 239.233 480 210.561 480 177.6 L 480 177.6 C 480 154.384 473.276 132.741 461.67 114.513 C 440.8 81.737 404.144 60 362.4 60 L 362.4 60 C 315.36 60 275.04 86.858 256 127.2 L 256 127.2 Z " fill="rgb(235,235,235)"/><polygon points="334,236.6,176.2,327.706,176.2,145.494" fill="rgb(255,118,118)"/></g></svg>